<?xml version="1.0" standalone="no"?><!-- Generator: Gravit.io --><svg xmlns="http://www.w3.org/2000/svg" xmlns:xlink="http://www.w3.org/1999/xlink" style="isolation:isolate" viewBox="0 0 1024 350" width="1024px" height="350px"><defs><clipPath id="_clipPath_mZjBa3BHZHWWQ6FhN1oX9rYLsJ5mFMUc"><rect width="1024" height="350"/></clipPath></defs><g clip-path="url(#_clipPath_mZjBa3BHZHWWQ6FhN1oX9rYLsJ5mFMUc)"><path d=" M 281.7 193 L 281.7 193 L 281.7 193 Q 287.025 193 291.038 190.3 L 291.038 190.3 L 291.038 190.3 Q 295.05 187.6 297 183.025 L 297 183.025 L 302.925 183.025 L 302.925 183.025 Q 300.45 190.075 294.75 194.125 L 294.75 194.125 L 294.75 194.125 Q 288.675 198.475 280.425 198.475 L 280.425 198.475 L 280.425 198.475 Q 269.55 198.475 262.8 191.05 L 262.8 191.05 L 262.8 191.05 Q 256.425 183.925 256.425 173.05 L 256.425 173.05 L 256.425 173.05 Q 256.425 162.175 262.8 155.05 L 262.8 155.05 L 262.8 155.05 Q 269.55 147.625 280.425 147.625 L 280.425 147.625 L 280.425 147.625 Q 288.675 147.625 294.75 151.975 L 294.75 151.975 L 294.75 151.975 Q 300.45 156.025 302.925 163.075 L 302.925 163.075 L 297 163.075 L 297 163.075 Q 295.05 158.5 291.038 155.8 L 291.038 155.8 L 291.038 155.8 Q 287.025 153.1 281.7 153.1 L 281.7 153.1 L 281.7 153.1 Q 276.375 153.1 272.85 154.637 L 272.85 154.637 L 272.85 154.637 Q 269.325 156.175 266.925 158.875 L 266.925 158.875 L 266.925 158.875 Q 262.05 164.35 262.05 173.05 L 262.05 173.05 L 262.05 173.05 Q 262.05 181.75 266.925 187.225 L 266.925 187.225 L 266.925 187.225 Q 272.025 193 281.7 193 Z  M 326.4 159.775 L 326.4 159.775 L 326.4 159.775 Q 334.8 159.775 340.05 165.4 L 340.05 165.4 L 340.05 165.4 Q 345 170.8 345 179.125 L 345 179.125 L 345 179.125 Q 345 187.45 340.05 192.85 L 340.05 192.85 L 340.05 192.85 Q 334.8 198.475 326.4 198.475 L 326.4 198.475 L 326.4 198.475 Q 318 198.475 312.75 192.85 L 312.75 192.85 L 312.75 192.85 Q 307.8 187.45 307.8 179.125 L 307.8 179.125 L 307.8 179.125 Q 307.8 170.8 312.75 165.4 L 312.75 165.4 L 312.75 165.4 Q 318 159.775 326.4 159.775 Z  M 326.4 193.375 L 326.4 193.375 L 326.4 193.375 Q 332.475 193.375 336 189.175 L 336 189.175 L 336 189.175 Q 339.375 185.2 339.375 179.125 L 339.375 179.125 L 339.375 179.125 Q 339.375 173.05 336 169.075 L 336 169.075 L 336 169.075 Q 332.475 164.875 326.4 164.875 L 326.4 164.875 L 326.4 164.875 Q 320.325 164.875 316.8 169.075 L 316.8 169.075 L 316.8 169.075 Q 313.425 173.05 313.425 179.125 L 313.425 179.125 L 313.425 179.125 Q 313.425 185.2 316.8 189.175 L 316.8 189.175 L 316.8 189.175 Q 320.325 193.375 326.4 193.375 Z  M 358.05 145.375 L 358.05 197.875 L 352.425 197.875 L 352.425 145.375 L 358.05 145.375 Z  M 384.075 159.775 L 384.075 159.775 L 384.075 159.775 Q 392.475 159.775 397.725 165.4 L 397.725 165.4 L 397.725 165.4 Q 402.675 170.8 402.675 179.125 L 402.675 179.125 L 402.675 179.125 Q 402.675 187.45 397.725 192.85 L 397.725 192.85 L 397.725 192.85 Q 392.475 198.475 384.075 198.475 L 384.075 198.475 L 384.075 198.475 Q 375.675 198.475 370.425 192.85 L 370.425 192.85 L 370.425 192.85 Q 365.475 187.45 365.475 179.125 L 365.475 179.125 L 365.475 179.125 Q 365.475 170.8 370.425 165.4 L 370.425 165.4 L 370.425 165.4 Q 375.675 159.775 384.075 159.775 Z  M 384.075 193.375 L 384.075 193.375 L 384.075 193.375 Q 390.15 193.375 393.675 189.175 L 393.675 189.175 L 393.675 189.175 Q 397.05 185.2 397.05 179.125 L 397.05 179.125 L 397.05 179.125 Q 397.05 173.05 393.675 169.075 L 393.675 169.075 L 393.675 169.075 Q 390.15 164.875 384.075 164.875 L 384.075 164.875 L 384.075 164.875 Q 378 164.875 374.475 169.075 L 374.475 169.075 L 374.475 169.075 Q 371.1 173.05 371.1 179.125 L 371.1 179.125 L 371.1 179.125 Q 371.1 185.2 374.475 189.175 L 374.475 189.175 L 374.475 189.175 Q 378 193.375 384.075 193.375 Z  M 429.525 159.775 L 429.9 159.775 L 429.9 165.4 L 429.225 165.4 L 429.225 165.4 Q 423.15 165.4 419.325 170.275 L 419.325 170.275 L 419.325 170.275 Q 415.725 174.925 415.725 181.375 L 415.725 181.375 L 415.725 197.875 L 410.1 197.875 L 410.1 160.375 L 415.725 160.375 L 415.725 169.6 L 415.725 169.6 Q 417.525 163.75 423.525 160.975 L 423.525 160.975 L 423.525 160.975 Q 426 159.775 429.525 159.775 L 429.525 159.775 Z " fill="rgb(0,0,0)"/><path d=" M 566.7 180.175 L 566.7 197.875 L 561.075 197.875 L 561.075 148.225 L 583.425 148.225 L 583.425 148.225 Q 591.3 148.225 595.95 152.575 L 595.95 152.575 L 595.95 152.575 Q 600.525 156.925 600.525 164.2 L 600.525 164.2 L 600.525 164.2 Q 600.525 171.55 595.912 175.863 L 595.912 175.863 L 595.912 175.863 Q 591.3 180.175 583.425 180.175 L 583.425 180.175 L 566.7 180.175 Z  M 583.05 153.55 L 566.7 153.55 L 566.7 174.925 L 583.05 174.925 L 583.05 174.925 Q 588.9 174.925 591.9 172.075 L 591.9 172.075 L 591.9 172.075 Q 594.9 169.225 594.9 164.238 L 594.9 164.238 L 594.9 164.238 Q 594.9 159.25 591.9 156.4 L 591.9 156.4 L 591.9 156.4 Q 588.9 153.55 583.05 153.55 L 583.05 153.55 Z  M 635.775 197.875 L 635.775 191.875 L 635.775 191.875 Q 631.275 198.475 622.35 198.475 L 622.35 198.475 L 622.35 198.475 Q 614.25 198.475 609.15 192.85 L 609.15 192.85 L 609.15 192.85 Q 604.2 187.3 604.2 179.125 L 604.2 179.125 L 604.2 179.125 Q 604.2 170.95 609.15 165.4 L 609.15 165.4 L 609.15 165.4 Q 614.25 159.775 622.725 159.775 L 622.725 159.775 L 622.725 159.775 Q 631.2 159.775 635.775 166.45 L 635.775 166.45 L 635.775 160.375 L 641.4 160.375 L 641.4 197.875 L 635.775 197.875 Z  M 623.1 193.375 L 623.1 193.375 L 623.1 193.375 Q 629.175 193.375 632.7 189.175 L 632.7 189.175 L 632.7 189.175 Q 636.075 185.2 636.075 179.125 L 636.075 179.125 L 636.075 179.125 Q 636.075 173.05 632.7 169.075 L 632.7 169.075 L 632.7 169.075 Q 629.175 164.875 623.1 164.875 L 623.1 164.875 L 623.1 164.875 Q 617.1 164.875 613.35 169.075 L 613.35 169.075 L 613.35 169.075 Q 609.825 173.05 609.825 179.125 L 609.825 179.125 L 609.825 179.125 Q 609.825 185.2 613.35 189.175 L 613.35 189.175 L 613.35 189.175 Q 617.1 193.375 623.1 193.375 Z  M 656.775 160.375 L 656.775 166.375 L 656.775 166.375 Q 661.275 159.775 670.2 159.775 L 670.2 159.775 L 670.2 159.775 Q 678.3 159.775 683.325 165.4 L 683.325 165.4 L 683.325 165.4 Q 688.35 170.95 688.35 179.125 L 688.35 179.125 L 688.35 179.125 Q 688.35 187.3 683.325 192.85 L 683.325 192.85 L 683.325 192.85 Q 678.3 198.475 669.825 198.475 L 669.825 198.475 L 669.825 198.475 Q 661.35 198.475 656.775 191.8 L 656.775 191.8 L 656.775 212.725 L 651.15 212.725 L 651.15 160.375 L 656.775 160.375 Z  M 669.45 164.875 L 669.45 164.875 L 669.45 164.875 Q 663.375 164.875 659.85 169.075 L 659.85 169.075 L 659.85 169.075 Q 656.475 173.05 656.475 179.125 L 656.475 179.125 L 656.475 179.125 Q 656.475 185.2 659.85 189.175 L 659.85 189.175 L 659.85 189.175 Q 663.375 193.375 669.45 193.375 L 669.45 193.375 L 669.45 193.375 Q 675.45 193.375 679.2 189.175 L 679.2 189.175 L 679.2 189.175 Q 682.725 185.2 682.725 179.125 L 682.725 179.125 L 682.725 179.125 Q 682.725 173.05 679.2 169.075 L 679.2 169.075 L 679.2 169.075 Q 675.45 164.875 669.45 164.875 Z  M 712.425 193.375 L 712.425 193.375 L 712.425 193.375 Q 720 193.375 723.3 187.075 L 723.3 187.075 L 729.45 187.075 L 729.45 187.075 Q 727.5 192.175 723.263 195.325 L 723.263 195.325 L 723.263 195.325 Q 719.025 198.475 712.35 198.475 L 712.35 198.475 L 712.35 198.475 Q 703.875 198.475 698.55 192.85 L 698.55 192.85 L 698.55 192.85 Q 693.375 187.375 693.375 179.125 L 693.375 179.125 L 693.375 179.125 Q 693.375 170.8 698.325 165.4 L 698.325 165.4 L 698.325 165.4 Q 703.575 159.775 711.975 159.775 L 711.975 159.775 L 711.975 159.775 Q 720.375 159.775 725.625 165.4 L 725.625 165.4 L 725.625 165.4 Q 730.575 170.8 730.575 179.125 L 730.575 179.125 L 730.575 181.375 L 699.15 181.375 L 699.15 181.375 Q 699.75 186.55 703.275 189.925 L 703.275 189.925 L 703.275 189.925 Q 706.875 193.375 712.425 193.375 Z  M 711.975 164.875 L 711.975 164.875 L 711.975 164.875 Q 706.8 164.875 703.275 168.1 L 703.275 168.1 L 703.275 168.1 Q 699.975 171.175 699.225 176.125 L 699.225 176.125 L 724.725 176.125 L 724.725 176.125 Q 723.975 171.175 720.675 168.1 L 720.675 168.1 L 720.675 168.1 Q 717.15 164.875 711.975 164.875 Z  M 756.9 159.775 L 757.275 159.775 L 757.275 165.4 L 756.6 165.4 L 756.6 165.4 Q 750.525 165.4 746.7 170.275 L 746.7 170.275 L 746.7 170.275 Q 743.1 174.925 743.1 181.375 L 743.1 181.375 L 743.1 197.875 L 737.475 197.875 L 737.475 160.375 L 743.1 160.375 L 743.1 169.6 L 743.1 169.6 Q 744.9 163.75 750.9 160.975 L 750.9 160.975 L 750.9 160.975 Q 753.375 159.775 756.9 159.775 L 756.9 159.775 Z " fill="rgb(0,0,0)"/><path d=" M 458.37 100.11 L 529.76 100.11 C 532.64 100.11 535.41 101.26 537.45 103.3 C 539.49 105.34 540.63 108.1 540.63 110.99 L 540.63 232.86 C 540.63 235.75 539.49 238.51 537.45 240.55 C 535.41 242.59 532.64 243.74 529.76 243.74 L 458.37 243.74 C 455.49 243.74 452.72 242.59 450.68 240.55 C 448.65 238.51 447.5 235.75 447.5 232.86 L 447.5 110.99 C 447.5 108.1 448.65 105.34 450.68 103.3 C 452.72 101.26 455.49 100.11 458.37 100.11 Z  M 458.37 105.11 L 529.76 105.11 C 531.32 105.11 532.81 105.73 533.91 106.83 C 535.01 107.93 535.63 109.43 535.63 110.99 L 535.63 232.86 C 535.63 234.42 535.01 235.92 533.91 237.02 C 532.81 238.12 531.32 238.74 529.76 238.74 L 458.37 238.74 C 456.82 238.74 455.32 238.12 454.22 237.02 C 453.12 235.92 452.5 234.42 452.5 232.86 L 452.5 110.99 C 452.5 109.43 453.12 107.93 454.22 106.83 C 455.32 105.73 456.82 105.11 458.37 105.11 Z " fill-rule="evenodd" fill="rgb(0,0,0)"/><path d=" M 537.56 166.11 L 539.92 166.93 L 538.28 171.66 L 535.92 170.84 L 449.89 140.92 L 447.53 140.1 L 449.17 135.38 L 451.54 136.2 L 537.56 166.11 Z " fill="rgb(0,0,0)"/><path d=" M 537.56 208.68 L 539.92 209.5 L 538.28 214.22 L 535.92 213.4 L 449.89 183.49 L 447.53 182.67 L 449.17 177.95 L 451.54 178.77 L 537.56 208.68 Z " fill="rgb(0,0,0)"/></g></svg>